<svg width="104" height="19" viewBox="0 0 104 19" fill="none" xmlns="http://www.w3.org/2000/svg">
<path d="M65.756 18.8831C62.5687 18.8831 59.8047 16.1601 59.8047 11.7574V11.7065C59.8047 7.22751 62.5438 4.50447 65.7311 4.50447C67.773 4.50447 68.9682 5.44608 69.8646 6.48949V0H74.5958V18.5778H69.8646V16.7454C68.9433 17.8906 67.773 18.8831 65.756 18.8831ZM67.2002 14.8368C68.7192 14.8368 69.9393 13.5389 69.9393 11.7065V11.6556C69.9393 9.84876 68.7192 8.55086 67.2002 8.55086C65.6813 8.55086 64.4362 9.82331 64.4362 11.6556V11.7065C64.4362 13.5389 65.6813 14.8368 67.2002 14.8368Z" fill="#141F30"/>
<path d="M83.1866 18.9086C78.9534 18.9086 75.9653 16.0329 75.9653 11.7574V11.7065C75.9653 7.68559 78.7791 4.50447 82.7633 4.50447C87.4197 4.50447 89.5612 7.99098 89.5612 12.0374C89.5612 12.3428 89.5612 12.699 89.5363 13.0299H80.5222C80.8957 14.5314 81.9664 15.2948 83.4356 15.2948C84.5561 15.2948 85.4526 14.8622 86.4237 13.8951L89.0383 16.1092C87.7434 17.7888 85.8759 18.9086 83.1866 18.9086ZM80.4475 10.5613H85.1289C84.9546 9.03439 84.083 8.06733 82.7882 8.06733C81.5431 8.06733 80.6965 9.05984 80.4475 10.5613Z" fill="#141F30"/>
<path d="M94.3173 18.6796L88.9387 4.80986H93.9189L96.5085 12.8517L99.0982 4.80986H104.004L98.6251 18.6796H94.3173Z" fill="#141F30"/>
<path d="M29.645 13.3789L33.5967 8.84328L33.7298 8.91044L34.0112 9.27894L34.1885 9.68396C33.768 10.693 33.7064 12.2375 34.6463 14.6688C35.6989 17.3912 37.8674 18.4745 38.944 18.4567V18.4686H31.7061V18.1103C32.6664 17.9191 32.6196 17.6323 32.1043 16.4853L30.6286 13.0205L29.645 14.1674V16.2942C29.645 17.5606 29.8792 17.9191 30.5819 18.1103V18.4686H24.3278V18.1103C25.0305 17.9191 25.2646 17.5606 25.2646 16.2942V4.4897C25.2646 3.22331 25.0305 2.86496 24.3278 2.6738V2.31524H25.5692C27.3728 2.31524 28.544 2.26752 29.4107 1.45508H29.645V13.3789Z" fill="#FF6037"/>
<path d="M33.6361 8.59843L35.2362 8.21432L34.1371 9.74159L32.2021 10.4688L33.6361 8.59843Z" fill="#FF6037"/>
<path d="M17.4922 19.0006C13.3371 19.0006 10.4041 16.183 10.4041 11.994V11.9441C10.4041 8.00449 13.166 4.88769 17.0767 4.88769C21.6474 4.88769 23.7493 8.30371 23.7493 12.2683C23.7493 12.5675 23.7493 12.9166 23.7249 13.2407H14.877C15.2436 14.7119 16.2946 15.4599 17.7367 15.4599C18.8365 15.4599 19.7164 15.036 20.6697 14.0885L23.2361 16.2578C21.9651 17.9035 20.132 19.0006 17.4922 19.0006ZM14.8036 10.8221H19.3987C19.2276 9.32602 18.3721 8.37851 17.1012 8.37851C15.8791 8.37851 15.048 9.35095 14.8036 10.8221Z" fill="#FF6037"/>
<path d="M6.0127 18.9507C3.22632 18.9507 1.56428 17.704 1.56428 14.4874V9.00187H0V5.18691H1.56428V1.77089H6.20823V5.18691H9.2879V9.00187H6.20823V13.5649C6.20823 14.5124 6.62374 14.9113 7.47921 14.9113C8.09025 14.9113 8.67686 14.7368 9.23902 14.4625V18.1777C8.408 18.6515 7.30811 18.9507 6.0127 18.9507Z" fill="#FF6037"/>
<path fill-rule="evenodd" clip-rule="evenodd" d="M41.9791 4.54692C43.3508 4.54692 44.5722 4.90665 45.6255 5.62461V4.7892H50.3681V18.2263H45.6255V17.3909C44.5722 18.1089 43.3508 18.4686 41.9791 18.4686C40.1074 18.4686 38.5183 17.8037 37.2596 16.4723C35.9888 15.1289 35.3592 13.4587 35.3592 11.5078C35.3592 9.55682 35.9888 7.88669 37.2596 6.54321C38.5183 5.21185 40.1074 4.54693 41.9791 4.54692ZM45.61 16.5852C45.6151 16.5811 45.6204 16.5773 45.6255 16.5732C45.655 16.5495 45.6842 16.5252 45.7134 16.5007C45.6792 16.5294 45.6446 16.5575 45.61 16.5852ZM42.3373 8.17061C41.3251 8.17061 40.5513 8.48811 39.9566 9.09165C39.3619 9.69518 39.049 10.4804 39.049 11.5078C39.049 12.5351 39.3619 13.3204 39.9566 13.9239C40.5513 14.5274 41.3251 14.8449 42.3373 14.8449C43.3496 14.8449 44.1234 14.5274 44.7181 13.9239C45.3127 13.3204 45.6255 12.5351 45.6255 11.5078C45.6255 10.4805 45.3127 9.69517 44.7181 9.09165C44.1234 8.48812 43.3496 8.17062 42.3373 8.17061ZM46.2767 7.04929L46.1983 6.96691C46.1918 6.96015 46.1852 6.95353 46.1786 6.94682L46.2767 7.04929ZM45.7134 6.5146C45.6843 6.49023 45.6549 6.46606 45.6255 6.44237C45.6204 6.43824 45.6151 6.43429 45.61 6.43019C45.6446 6.45789 45.6792 6.48597 45.7134 6.5146ZM42.1291 5.20944C42.1229 5.20931 42.1167 5.20915 42.1106 5.20904L41.9791 5.20782C42.0293 5.20782 42.0793 5.2084 42.1291 5.20944Z" fill="#FF6037"/>
<path d="M52.1045 18.2263H50.5851V4.7892H52.1045V18.2263Z" fill="#FF6037"/>
<path d="M54.709 18.2263H52.3215V4.7892H54.709V18.2263Z" fill="#FF6037"/>
<path d="M49.2096 4.75471H50.6354V18.2608H49.2096V4.75471Z" fill="#082E5E"/>
<path d="M50.8391 4.75471H52.2648V18.2608H50.8391V4.75471Z" fill="#082E5E"/>
<path d="M52.4685 4.75471H54.709V18.2608H52.4685V4.75471Z" fill="#082E5E"/>
</svg>
