<svg width="226" height="44" viewBox="0 0 226 44" fill="none" xmlns="http://www.w3.org/2000/svg">
<path d="M71.569 28.2667L81.1092 17.5146L81.4305 17.6738L82.11 18.5474L82.5378 19.5075C81.5227 21.8996 81.374 25.561 83.6432 31.3247C86.1842 37.7784 91.4194 40.3464 94.0186 40.3042V40.3326H76.5449V39.4831C78.8634 39.0299 78.7503 38.35 77.5062 35.6309L73.9436 27.4172L71.569 30.136V35.1778C71.569 38.18 72.1343 39.0299 73.8307 39.4831V40.3326H58.7322V39.4831C60.4286 39.0299 60.9939 38.18 60.9939 35.1778V7.19391C60.9939 4.1918 60.4286 3.34228 58.7322 2.88911V2.03912H61.7291C66.0834 2.03912 68.911 1.92599 71.0033 0H71.569V28.2667Z" fill="#FF6037"/>
<path d="M81.2042 16.9341L85.0673 16.0236L82.4139 19.6441L77.7424 21.3681L81.2042 16.9341Z" fill="#FF6037"/>
<path d="M42.2298 41.5936C32.1985 41.5936 25.1176 34.9142 25.1176 24.9837V24.8655C25.1176 15.5261 31.7854 8.13741 41.2266 8.13741C52.2611 8.13741 57.3357 16.2355 57.3357 25.6339C57.3357 26.3432 57.3357 27.1708 57.2767 27.9392H35.916C36.8011 31.4267 39.3384 33.2 42.8199 33.2C45.4752 33.2 47.5995 32.1951 49.9008 29.9489L56.0965 35.0915C53.0282 38.9928 48.6026 41.5936 42.2298 41.5936ZM35.7389 22.2056H46.8324C46.4193 18.659 44.354 16.4128 41.2857 16.4128C38.3353 16.4128 36.329 18.7181 35.7389 22.2056Z" fill="#FF6037"/>
<path d="M14.5159 41.4754C7.789 41.4754 3.77648 38.5199 3.77648 30.8947V17.8905H0V8.84673H3.77648V0.748674H14.9879V8.84673H22.4229V17.8905H14.9879V28.7076C14.9879 30.9538 15.991 31.8996 18.0563 31.8996C19.5315 31.8996 20.9477 31.4858 22.3049 30.8356V39.643C20.2986 40.766 17.6433 41.4754 14.5159 41.4754Z" fill="#FF6037"/>
<path fill-rule="evenodd" clip-rule="evenodd" d="M101.346 7.32956C104.658 7.32956 107.606 8.18234 110.149 9.88435V7.90392H121.599V39.7582H110.149V37.7778C107.606 39.4798 104.658 40.3326 101.346 40.3326C96.8272 40.3325 92.9909 38.7563 89.9522 35.6001C86.8843 32.4153 85.3643 28.456 85.3643 23.8311C85.3643 19.2061 86.8843 15.2469 89.9522 12.062C92.9909 8.90586 96.8272 7.3296 101.346 7.32956ZM110.112 35.8676C110.124 35.8579 110.137 35.8489 110.149 35.8392C110.22 35.783 110.291 35.7253 110.361 35.6675C110.279 35.7354 110.195 35.8019 110.112 35.8676ZM102.211 15.9199C99.767 15.9199 97.8989 16.6726 96.4633 18.1034C95.0276 19.5341 94.2721 21.3956 94.2721 23.8311C94.2721 26.2665 95.0276 28.128 96.4633 29.5588C97.8989 30.9895 99.767 31.7422 102.211 31.7422C104.655 31.7422 106.523 30.9895 107.958 29.5588C109.394 28.128 110.149 26.2664 110.149 23.8311C110.149 21.3957 109.394 19.5341 107.958 18.1034C106.523 16.6726 104.655 15.92 102.211 15.9199ZM111.721 13.2617L111.532 13.0664C111.516 13.0504 111.5 13.0347 111.485 13.0188L111.721 13.2617ZM110.361 11.9942C110.291 11.9364 110.22 11.8791 110.149 11.8229C110.137 11.8132 110.124 11.8038 110.112 11.7941C110.195 11.8597 110.279 11.9263 110.361 11.9942ZM101.708 8.90015C101.693 8.89984 101.678 8.89946 101.663 8.89919L101.346 8.8963C101.467 8.8963 101.588 8.89767 101.708 8.90015Z" fill="#FF6037"/>
<path d="M118.802 7.82215H122.244V39.84H118.802V7.82215Z" fill="#082E5E"/>
<path d="M122.736 7.82215H126.178V39.84H122.736V7.82215Z" fill="#082E5E"/>
<path d="M126.67 7.82215H132.079V39.84H126.67V7.82215Z" fill="#082E5E"/>
<path d="M137 5H220C223.314 5 226 7.68629 226 11V38C226 41.3137 223.314 44 220 44H143C139.686 44 137 41.3137 137 38V5Z" fill="#083063"/>
<path d="M149.699 12C151.147 12 152.619 12.359 154.116 13.0771C155.638 13.7705 156.901 14.86 157.907 16.3457C158.938 17.8314 159.453 19.6514 159.453 21.8057C159.453 24.6533 158.533 26.9686 156.693 28.7514C157.748 29.7419 158.423 30.7695 158.717 31.8343C159.012 32.8743 159.159 34.1248 159.159 35.5857V38H152.828V35.7714C152.828 34.1124 152.484 33.0105 151.797 32.4657C151.135 31.8962 150.362 31.6114 149.478 31.6114V38H143V12H149.699ZM152.901 21.8057C152.901 20.7905 152.644 20.0352 152.128 19.54C151.638 19.02 151.073 18.6857 150.435 18.5371C149.797 18.3638 149.478 18.3143 149.478 18.3886V25.2229C149.478 25.2971 149.797 25.26 150.435 25.1114C151.073 24.9381 151.638 24.6038 152.128 24.1086C152.644 23.5886 152.901 22.821 152.901 21.8057Z" fill="white"/>
<path d="M179.716 12V18.3886H170.183V21.8057H176.698V28.1943H170.183V31.6114H179.864V38H163.705V12H179.716Z" fill="white"/>
<path d="M195.268 38V34.8429H190.704V38H184.225V28.8629C184.225 26.2876 184.9 23.7 186.25 21.1C187.624 18.4752 189.575 16.3086 192.102 14.6C194.654 12.8667 197.587 12 200.9 12H201.746V38H195.268ZM195.268 20.58C193.869 21.2981 192.777 22.4124 191.992 23.9229C191.207 25.4086 190.777 26.8819 190.704 28.3429H195.268V20.58Z" fill="white"/>
<path d="M212.743 12V31.6114H219V38H206.264V12H212.743Z" fill="white"/>
</svg>
