<svg width="244" height="244" viewBox="0 0 244 244" fill="none" xmlns="http://www.w3.org/2000/svg">
<rect x="161.857" y="45.75" width="17.6668" height="152.5" fill="#082E5E"/>
<rect x="182.047" y="45.75" width="17.6668" height="152.5" fill="#082E5E"/>
<rect x="202.238" y="45.75" width="27.7621" height="152.5" fill="#082E5E"/>
<path d="M53.1049 154.725C61.6186 163.158 72.6309 167.375 86.1418 167.375C99.6526 167.375 110.665 163.158 119.179 154.725C127.692 146.292 131.949 135.383 131.949 122C131.949 108.617 127.692 97.7083 119.179 89.275C110.665 80.8417 99.6526 76.625 86.1418 76.625C72.6309 76.625 61.6186 80.8417 53.1049 89.275C44.5912 97.7083 40.3343 108.617 40.3343 122C40.3343 135.383 44.5912 146.292 53.1049 154.725ZM131.949 53.25H159.711V190.75H131.949V172.6C118.623 186.533 101.966 193.5 81.9775 193.5C62.1738 193.5 45.7017 186.717 32.561 173.15C19.2352 159.4 12.5723 142.35 12.5723 122C12.5723 101.65 19.2352 84.6 32.561 70.85C45.7017 57.2833 62.1738 50.5 81.9775 50.5C101.966 50.5 118.623 57.4667 131.949 71.4V53.25Z" fill="#FF6037"/>
<path fill-rule="evenodd" clip-rule="evenodd" d="M124.377 45.75H167.282V198.25H124.377V188.77C112.129 196.918 97.9273 201 81.9767 201C60.2117 201 41.7346 193.454 27.0982 178.344C12.3212 163.097 5 144.142 5 122C5 99.8581 12.3212 80.9034 27.0982 65.656C41.7346 50.546 60.2117 43 81.9767 43C97.9273 43 112.129 47.0821 124.377 55.2305V45.75ZM131.948 71.4C129.534 68.8755 127.01 66.5796 124.377 64.5125C112.477 55.1708 98.3437 50.5 81.9767 50.5C62.173 50.5 45.7009 57.2833 32.5602 70.85C19.2344 84.6 12.5715 101.65 12.5715 122C12.5715 142.35 19.2344 159.4 32.5602 173.15C45.7009 186.717 62.173 193.5 81.9767 193.5C98.3437 193.5 112.477 188.829 124.377 179.487C127.01 177.42 129.534 175.125 131.948 172.6V190.75H159.71V53.25H131.948V71.4ZM58.4579 149.422C65.3729 156.271 74.3702 159.875 86.141 159.875C97.9117 159.875 106.909 156.271 113.824 149.422C120.739 142.572 124.377 133.66 124.377 122C124.377 110.34 120.739 101.428 113.824 94.5783C106.909 87.7287 97.9117 84.125 86.141 84.125C74.3702 84.125 65.3729 87.7287 58.4579 94.5783C51.543 101.428 47.905 110.34 47.905 122C47.905 133.66 51.543 142.572 58.4579 149.422ZM86.141 167.375C72.6301 167.375 61.6178 163.158 53.1041 154.725C44.5904 146.292 40.3335 135.383 40.3335 122C40.3335 108.617 44.5904 97.7083 53.1041 89.275C61.6178 80.8417 72.6301 76.625 86.141 76.625C99.6519 76.625 110.664 80.8417 119.178 89.275C127.692 97.7083 131.948 108.617 131.948 122C131.948 135.383 127.692 146.292 119.178 154.725C110.664 163.158 99.6519 167.375 86.141 167.375Z" fill="#FF6037"/>
</svg>
